<svg width="387" height="403" viewBox="0 0 387 403" fill="none" xmlns="http://www.w3.org/2000/svg">
<path fill-rule="evenodd" clip-rule="evenodd" d="M330.616 58.5648C294.236 20.819 245.854 0.0212156 194.308 0C88.0991 0 1.65818 89.5776 1.61567 199.683C1.60151 234.879 10.4749 269.235 27.3363 299.518L0 403L102.149 375.231C130.293 391.139 161.981 399.523 194.231 399.538H194.31C300.508 399.538 386.957 309.949 387 199.842C387.02 146.484 366.996 96.3105 330.616 58.5648ZM194.31 365.81H194.245C165.507 365.798 137.319 357.797 112.73 342.674L106.881 339.077L46.2653 355.556L62.4451 294.307L58.6366 288.028C42.6047 261.601 34.137 231.057 34.1496 199.696C34.1847 108.18 106.032 33.7273 194.374 33.7273C237.151 33.7442 277.363 51.0316 307.602 82.4045C337.84 113.777 354.483 155.48 354.467 199.829C354.43 291.351 282.584 365.81 194.31 365.81ZM282.16 241.501C277.345 239.003 253.674 226.931 249.26 225.266C244.847 223.601 241.638 222.769 238.427 227.764C235.218 232.759 225.991 243.999 223.181 247.328C220.374 250.659 217.565 251.075 212.75 248.577C207.936 246.08 192.422 240.811 174.032 223.812C159.719 210.582 150.056 194.24 147.247 189.246C144.439 184.25 146.949 181.549 149.359 179.062C151.524 176.826 154.173 173.234 156.581 170.32C158.988 167.407 159.79 165.325 161.395 161.996C163 158.665 162.198 155.751 160.994 153.254C159.79 150.756 150.162 126.196 146.149 116.206C142.241 106.476 138.272 107.792 135.316 107.64C132.511 107.495 129.298 107.464 126.089 107.464C122.879 107.464 117.663 108.713 113.249 113.708C108.836 118.704 96.399 130.775 96.399 155.335C96.399 179.894 113.651 203.621 116.058 206.951C118.465 210.282 150.009 260.682 198.307 282.295C209.794 287.436 218.762 290.505 225.754 292.806C237.289 296.603 247.784 296.067 256.081 294.783C265.331 293.35 284.566 282.712 288.579 271.056C292.591 259.401 292.591 249.41 291.387 247.329C290.184 245.248 286.974 243.999 282.16 241.501Z" fill="#BBBBBB"/>
</svg>
